<?xml version="1.0" encoding="UTF-8"?>
<!DOCTYPE svg PUBLIC "-//W3C//DTD SVG 1.1//EN" "http://www.w3.org/Graphics/SVG/1.1/DTD/svg11.dtd">
<!-- Creator: CorelDRAW 2018 (64-Bit) -->
<svg xmlns="http://www.w3.org/2000/svg" xml:space="preserve" width="154.678mm" height="101.816mm" version="1.1" style="shape-rendering:geometricPrecision; text-rendering:geometricPrecision; image-rendering:optimizeQuality; fill-rule:evenodd; clip-rule:evenodd"
viewBox="0 0 15467.8 10181.6"
 xmlns:xlink="http://www.w3.org/1999/xlink">
 <defs>
  <style type="text/css">
   <![CDATA[
    .fil2 {fill:#212121}
    .fil1 {fill:#3BA4D4}
    .fil0 {fill:#212121;fill-rule:nonzero}
   ]]>
  </style>
 </defs>
 <g id="Слой_x0020_1">
  <metadata id="CorelCorpID_0Corel-Layer"/>
  <path class="fil0" d="M1899.21 2579.19c0,206.47 -98.39,383.81 -295.16,532 -196.78,148.19 -421.48,222.28 -674.13,222.28 -252.65,0 -456.09,-62.54 -610.35,-187.65 -154.26,-125.11 -231.4,-254.47 -231.4,-388.09 0,-133.6 37.65,-200.42 112.96,-200.42 58.31,0 119.04,29.15 182.2,87.46 63.16,58.31 134.22,116.61 213.17,174.9 78.95,58.31 168.23,87.46 267.84,87.46 99.59,0 212.55,-41.3 338.88,-123.89 126.32,-82.6 189.48,-151.84 189.48,-207.71 0,-55.87 -68.63,-149.4 -205.87,-280.59 -137.26,-131.18 -274.52,-266.6 -411.77,-406.29 -137.26,-139.68 -205.89,-247.78 -205.89,-324.31 0,-76.53 13.96,-159.72 41.91,-249.62 27.94,-89.88 62.55,-151.82 103.85,-185.83 131.18,-128.76 300.63,-239.9 508.33,-333.42 207.71,-93.54 390.51,-140.29 548.42,-140.29 92.3,0 168.83,39.48 229.56,118.43 60.74,78.95 91.1,160.93 91.1,245.96 0,34.01 -27.32,61.34 -81.99,81.99 -54.65,20.65 -133.6,41.9 -236.85,63.77 -103.25,21.87 -208.31,53.44 -315.21,94.74 -247.78,92.32 -371.67,170.05 -371.67,233.21 0,29.16 42.5,81.99 127.53,158.52 85.02,76.51 177.95,156.68 278.76,240.5 100.82,83.81 193.73,189.48 278.77,317.02 85.03,127.54 127.53,250.82 127.53,369.87zm2047.9 -612.19c97.17,0 167.01,9.11 209.53,27.33 42.51,18.21 63.77,51.62 63.77,100.21 0,65.58 -105.69,132.39 -317.04,200.4 4.88,184.64 7.3,361.38 7.3,530.21 0,168.83 -13.37,295.15 -40.09,378.96 -26.72,83.82 -69.24,125.72 -127.53,125.72 -58.3,0 -103.86,-29.75 -136.65,-89.28 -32.79,-59.5 -59.53,-157.29 -80.17,-293.33 -20.64,-136.04 -41.9,-315.82 -63.76,-539.3 -247.8,55.87 -426.36,100.81 -535.66,134.82 -189.49,524.73 -315.82,787.09 -378.98,787.09 -51.01,0 -118.43,-34.01 -202.24,-102.03 -83.81,-68.01 -125.71,-138.47 -125.71,-211.35 0,-41.3 47.36,-170.04 142.11,-386.25 -41.3,-26.73 -77.13,-64.98 -107.5,-114.79 -30.37,-49.8 -45.54,-97.78 -45.54,-143.94 0,-80.16 120.24,-156.69 360.74,-229.57 19.44,-48.58 39.48,-103.85 60.13,-165.79 20.66,-61.95 72.87,-207.1 156.69,-435.45 83.81,-228.36 150.01,-419.06 198.59,-572.11 21.87,-72.87 97.79,-140.89 227.75,-204.05 129.97,-63.17 231.39,-94.76 304.27,-94.76 85.02,0 160.94,117.84 227.75,353.47 66.8,235.64 113.56,550.24 140.3,943.79l61.94 0zm-841.76 61.94c72.89,-9.71 178.56,-21.86 317.03,-36.44 -7.29,-70.44 -18.82,-190.69 -34.62,-360.74 -15.79,-170.05 -27.32,-292.74 -34.61,-368.05 -41.31,136.04 -123.89,391.13 -247.8,765.23zm3348.79 1173.35c0,99.61 -69.24,149.4 -207.71,149.4 -189.49,0 -388.07,-98.39 -595.78,-295.15 -207.7,-196.78 -355.29,-402.06 -442.75,-615.83 -38.86,116.6 -65.58,195.56 -80.16,236.85 -14.57,41.3 -36.43,106.9 -65.59,196.78 -29.15,89.88 -51.63,156.68 -67.42,200.42 -15.78,43.72 -33.4,89.88 -52.83,138.46 -36.44,92.32 -71.67,138.47 -105.68,138.47 -55.87,0 -123.28,-46.75 -202.24,-140.29 -78.95,-93.52 -118.42,-169.45 -118.42,-227.74 0,-58.3 27.94,-166.41 83.81,-324.31 165.19,-483.44 259.93,-924.35 284.22,-1322.76 -46.15,-36.43 -87.46,-87.45 -123.89,-153.05 -36.44,-65.58 -54.66,-120.25 -54.66,-163.97 0,-72.88 94.13,-149.41 282.4,-229.57 188.27,-80.17 405.7,-120.26 652.27,-120.26 246.58,0 452.46,58.31 617.65,174.92 165.19,116.6 247.8,268.44 247.8,455.5 0,138.47 -40.7,271.47 -122.07,399 -81.39,127.54 -170.07,227.15 -266.02,298.81 -95.96,71.66 -184.62,136.65 -266.01,194.95 -81.38,58.3 -122.07,95.95 -122.07,112.97 0,58.29 19.43,113.56 58.31,165.79 38.87,52.24 93.52,112.96 163.97,182.2 70.46,69.24 131.19,127.54 182.2,174.9 51.02,47.38 92.92,86.86 125.71,118.44 32.81,31.59 64.98,64.38 96.57,98.39 65.58,63.16 98.39,115.39 98.39,156.68zm-510.16 -1865.7c0,-102.03 -99.59,-153.05 -298.79,-153.05 -94.75,0 -207.71,26.74 -338.9,80.17 60.73,92.32 91.1,177.34 91.1,255.09 0,140.89 -19.44,296.37 -58.3,466.42 26.73,-19.44 76.52,-54.05 149.4,-103.86 72.88,-49.8 129.36,-89.88 169.45,-120.24 40.08,-30.37 85.62,-69.85 136.64,-118.43 99.61,-94.75 149.4,-196.78 149.4,-306.1zm2488.83 630.41c97.17,0 167.01,9.11 209.53,27.33 42.5,18.21 63.76,51.62 63.76,100.21 0,65.58 -105.68,132.39 -317.03,200.4 4.87,184.64 7.29,361.38 7.29,530.21 0,168.83 -13.37,295.15 -40.08,378.96 -26.72,83.82 -69.24,125.72 -127.53,125.72 -58.31,0 -103.87,-29.75 -136.66,-89.28 -32.79,-59.5 -59.52,-157.29 -80.17,-293.33 -20.64,-136.04 -41.9,-315.82 -63.76,-539.3 -247.8,55.87 -426.35,100.81 -535.66,134.82 -189.49,524.73 -315.81,787.09 -378.98,787.09 -51.01,0 -118.43,-34.01 -202.24,-102.03 -83.8,-68.01 -125.7,-138.47 -125.7,-211.35 0,-41.3 47.36,-170.04 142.11,-386.25 -41.3,-26.73 -77.13,-64.98 -107.5,-114.79 -30.37,-49.8 -45.54,-97.78 -45.54,-143.94 0,-80.16 120.23,-156.69 360.73,-229.57 19.45,-48.58 39.49,-103.85 60.13,-165.79 20.66,-61.95 72.88,-207.1 156.7,-435.45 83.8,-228.36 150,-419.06 198.58,-572.11 21.88,-72.87 97.79,-140.89 227.76,-204.05 129.96,-63.17 231.39,-94.76 304.26,-94.76 85.03,0 160.94,117.84 227.76,353.47 66.8,235.64 113.56,550.24 140.29,943.79l61.95 0zm-841.77 61.94c72.89,-9.71 178.56,-21.86 317.04,-36.44 -7.3,-70.44 -18.83,-190.69 -34.63,-360.74 -15.79,-170.05 -27.32,-292.74 -34.61,-368.05 -41.3,136.04 -123.89,391.13 -247.8,765.23zm2175.43 -845.4c-262.36,14.59 -405.68,21.86 -429.97,21.86 -58.31,0 -116.62,-35.83 -174.91,-107.48 -58.3,-71.68 -87.46,-146.37 -87.46,-224.1 0,-119.04 346.17,-178.56 1038.53,-178.56 354.68,0 615.83,36.44 783.44,109.32 167.63,72.88 251.43,161.54 251.43,266 0,31.59 -18.22,61.35 -54.65,89.28 -36.45,27.94 -82.6,41.9 -138.48,41.9 -55.87,0 -157.89,-3.63 -306.08,-10.93 -148.19,-7.29 -283.02,-12.14 -404.48,-14.56 9.71,29.13 14.57,63.16 14.57,102.02 0,38.87 -13.97,115.38 -41.9,229.56 -27.94,114.18 -67.42,272.7 -118.44,475.55 -51.01,202.84 -106.88,448.2 -167.61,736.06 -60.74,287.88 -102.64,459.15 -125.72,513.8 -23.08,54.67 -45.54,82 -67.4,82 -51.02,0 -114.8,-46.77 -191.31,-140.29 -76.53,-93.53 -114.8,-169.45 -114.8,-227.75 0,-58.31 49.8,-299.41 149.41,-723.33 99.61,-423.9 161.55,-770.69 185.83,-1040.35zm2259.25 1521.35c140.9,-125.1 263.59,-283 368.04,-473.71 104.46,-190.69 156.69,-373.5 156.69,-548.41 0,-174.92 -21.86,-309.74 -65.6,-404.48 -43.72,-94.75 -104.45,-142.11 -182.19,-142.11 -77.74,0 -179.16,69.84 -304.27,209.52 -125.11,139.69 -238.07,322.49 -338.88,548.42 -100.83,225.92 -151.22,442.13 -151.22,648.62 0,104.46 14.57,188.87 43.72,253.25 29.15,64.38 65.58,96.57 109.32,96.57 102.03,0 223.5,-62.56 364.39,-187.67zm-360.75 628.58c-179.76,0 -340.1,-88.06 -481.01,-264.18 -140.89,-176.12 -211.33,-351.65 -211.33,-526.55 0,-223.5 42.5,-452.45 127.53,-686.88 85.02,-234.43 191.3,-437.27 318.85,-608.54 127.53,-171.26 267.82,-312.17 420.86,-422.7 153.06,-110.54 293.96,-165.81 422.7,-165.81 235.65,0 428.78,100.21 579.4,300.63 150.61,200.42 225.92,425.74 225.92,675.96 0,250.21 -63.16,503.46 -189.49,759.75 -126.31,256.29 -300.61,476.76 -522.89,661.39 -222.28,184.62 -452.47,276.93 -690.54,276.93zm3312.35 -2667.36c68.01,0 136.63,24.89 205.87,74.69 69.24,49.81 103.87,97.79 103.87,143.95 0,46.16 -9.12,97.17 -27.34,153.04 -18.22,55.87 -47.37,125.71 -87.46,209.53 -40.08,83.81 -80.17,165.19 -120.25,244.14 -40.08,78.95 -92.92,182.2 -158.5,309.74 -65.6,127.53 -122.69,241.11 -171.27,340.7 -48.59,99.61 -102.64,217.43 -162.17,353.46 -59.51,136.04 -108.7,247.18 -147.57,333.42 -38.86,86.25 -80.17,170.67 -123.89,253.26 -85.02,165.19 -167.63,247.79 -247.79,247.79 -36.45,0 -86.85,-26.71 -151.23,-80.16 -64.38,-53.45 -107.5,-106.89 -129.36,-160.34 -70.44,-187.05 -163.97,-576.96 -280.59,-1169.71 -116.6,-592.75 -174.9,-949.85 -174.9,-1071.32 0,-121.47 32.79,-182.19 98.39,-182.19 82.59,0 167.61,35.22 255.07,105.68 87.46,70.44 155.48,163.97 204.06,280.57 19.44,48.59 38.26,151.22 56.49,307.92 18.22,156.68 40.08,351.03 65.58,583.04 25.51,231.99 52.85,430.59 82,595.78 245.36,-665.64 439.09,-1144.21 581.2,-1435.73 142.12,-291.51 252.04,-437.26 329.79,-437.26z"/>
  <path class="fil0" d="M6912.42 6117.02c49.41,0 146.26,51.3 290.58,153.88 144.29,102.58 216.46,179.21 216.46,229.87 0,88.65 29.9,234.3 89.7,436.93 59.81,202.64 128.71,386.28 206.71,550.93 78.01,-88.67 209.96,-252.66 395.86,-492.04 185.92,-239.36 342.58,-428.7 469.98,-568.01 127.42,-139.32 222.32,-208.98 284.72,-208.98 62.4,0 127.41,34.2 195.02,102.6 67.6,68.38 101.4,136.78 101.4,205.16 0,68.4 -10.4,156.42 -31.21,264.07 -20.8,107.65 -43.55,207.7 -68.25,300.15 -24.7,92.45 -59.8,218.47 -105.31,378.04 -45.5,159.59 -80.59,285.6 -105.3,378.05 -24.7,92.46 -50.05,191.24 -76.05,296.36 -26,105.12 -46.16,187.44 -60.45,246.97 -14.31,59.51 -29.91,121.58 -46.81,186.16 -16.91,64.59 -31.85,113.99 -44.85,148.19 -13,34.18 -27.31,65.22 -42.91,93.07 -28.59,53.2 -68.9,79.79 -120.9,79.79 -52,0 -103.35,-50.02 -154.06,-150.07 -50.7,-100.06 -76.05,-204.54 -76.05,-313.45 0,-268.49 79.3,-624.39 237.92,-1067.65 -44.21,55.73 -107.91,137.42 -191.12,245.07 -83.2,107.65 -144.96,186.17 -185.26,235.56 -40.3,49.39 -90.35,107.02 -150.16,172.88 -106.6,113.97 -210.61,170.98 -312.02,170.98 -135.21,0 -231.41,-51.94 -288.61,-155.79 -28.61,-53.19 -66.96,-172.87 -115.06,-359.04 -48.1,-186.17 -82.55,-314.72 -103.35,-385.65 -33.81,260.89 -79.3,497.73 -136.5,710.5 -57.21,212.77 -94.92,352.08 -113.11,417.94 -18.21,65.86 -42.9,145.64 -74.1,239.36 -52.01,159.57 -98.81,239.36 -140.41,239.36 -46.81,0 -111.16,-60.15 -193.07,-180.47 -81.91,-120.32 -122.85,-214.67 -122.85,-283.05 0,-68.4 76.05,-410.34 228.15,-1025.86 152.11,-615.5 228.18,-1004.31 228.18,-1166.42 0,-83.6 37.69,-125.39 113.09,-125.39zm2788.66 2781.19c-52,0 -122.21,-52.56 -210.62,-157.66 -88.4,-105.13 -132.6,-181.75 -132.6,-229.87 0,-48.13 64.35,-400.85 193.06,-1058.15 128.71,-657.3 195.65,-1060.68 200.85,-1210.12 5.21,-83.6 45.51,-125.39 120.92,-125.39 62.41,0 145.61,60.79 249.62,182.38 104,121.58 156,235.57 156,341.95 0,45.6 -35.76,217.2 -107.26,514.83 -71.5,297.62 -119.61,505.32 -144.3,623.1 -24.71,117.78 -46.16,222.9 -64.36,315.35 -18.2,92.45 -32.5,165.28 -42.9,218.48 -72.8,324.22 -130,510.38 -171.61,558.51 -15.6,17.73 -31.2,26.59 -46.8,26.59zm1517.19 -2838.18c64.99,0 144.3,41.8 237.9,125.39 93.61,83.58 140.41,169.7 140.41,258.36 0,243.17 -128.7,714.3 -386.12,1413.39 -88.4,245.69 -132.6,416.67 -132.6,512.93 0,12.65 2.59,20.26 7.79,22.79 5.2,2.54 53.3,3.8 144.32,3.8 90.99,0 216.46,-13.3 376.37,-39.89 159.9,-26.59 289.9,-52.56 390.02,-77.89 100.1,-25.33 159.26,-38 177.45,-38 65.01,0 97.51,40.53 97.51,121.58 0,159.58 -124.15,288.13 -372.47,385.65 -248.32,97.51 -536.28,146.27 -863.9,146.27 -127.4,0 -243.76,-46.22 -349.06,-138.67 -105.32,-92.46 -157.96,-194.4 -157.96,-305.85 0,-111.45 96.2,-471.77 288.61,-1080.95 192.41,-609.17 288.62,-1003.69 288.62,-1183.52 0,-83.59 37.7,-125.39 113.11,-125.39zm1743.39 2838.18l-7.79 0c-57.21,0 -128.71,-51.28 -214.51,-153.87 -85.81,-102.59 -128.71,-192.51 -128.71,-269.76 0,-77.25 76.05,-423.64 228.15,-1039.15 152.11,-615.51 228.17,-1004.32 228.17,-1166.43 0,-101.32 37.7,-151.98 113.1,-151.98 62.4,0 137.82,60.17 226.22,180.47 88.4,120.32 132.6,234.94 132.6,343.86 0,65.86 -33.79,234.3 -101.4,505.32 213.21,-276.09 413.42,-507.22 600.63,-693.39 187.21,-186.18 315.26,-279.27 384.18,-279.27 68.9,0 138.45,28.51 208.65,85.5 70.21,56.99 105.32,106.38 105.32,148.17 0,41.79 -66.31,123.49 -198.93,245.07 -132.6,121.58 -296.41,276.08 -491.42,463.52 -195.01,187.44 -345.82,362.22 -452.42,524.33 0,195.03 115.7,391.34 347.12,588.91 70.2,58.27 163.8,118.42 280.82,180.47 117,62.07 208.65,115.26 274.96,159.59 66.3,44.33 99.46,89.28 99.46,134.88 0,129.17 -93.61,193.76 -280.82,193.76 -187.21,0 -388.72,-74.08 -604.54,-222.26 -215.81,-148.17 -377.01,-345.12 -483.63,-590.81 -67.6,187.44 -109.2,323.58 -124.8,408.44 -15.6,84.86 -26.65,141.21 -33.16,169.08 -6.49,27.85 -12.34,50.02 -17.54,66.48 -5.2,16.47 -10.4,34.83 -15.6,55.1 -5.2,20.26 -10.4,36.08 -15.6,47.49 -5.2,11.4 -10.4,22.15 -15.6,32.29 -15.6,22.8 -29.9,34.19 -42.91,34.19z"/>
  <path class="fil1" d="M14739.55 4663.65c31.4,-23.86 157.59,-218.55 80.44,-555.43 -32.41,-141.54 50.31,-434.15 121,-569.17 -271.37,165.44 -659.16,365.3 -1253.22,477.32 -594.06,112.02 -1505.53,191.79 -2406.81,162.94 -901.28,-28.86 -1792.38,-166.35 -2610.5,-132.4 -818.1,33.95 -1563.23,239.33 -2287.14,240.17 -723.91,0.85 -1426.6,-202.82 -1929.86,-294.48 -503.26,-91.65 -807.08,-71.29 -1106.66,22.07 -299.58,93.35 -618.76,271.53 -790.55,356.84 -171.79,85.31 -269.34,116.65 -420.83,155.59 124.42,225.42 283.98,395.83 438.76,563.87 56.27,61.08 109.95,121.22 160.36,187.65 176.14,-90.11 354.12,-185.21 612.26,-265.65 258.14,-80.44 603.4,-113.72 1106.66,-22.07 503.26,91.66 1205.95,295.33 1929.86,294.48 723.91,-0.84 1469.04,-206.22 2287.14,-240.17 818.12,-33.95 1709.22,103.54 2610.5,132.4 901.28,28.85 1812.75,-50.92 2406.81,-162.94 594.06,-112.02 773.71,-214.48 1051.78,-351.02z"/>
  <path class="fil0" d="M4696.86 5832.93c-28.61,229.82 -144.51,385.03 -258.42,537.57 -115.47,154.61 -229,306.64 -256.96,531.31l-74.3 594.99c-76.42,611.32 -175.31,1402.48 -179.8,1447.26 -11.38,113.92 25.72,209.43 88.34,281.62 71.69,82.65 177.08,134.17 280.73,147.07l777.05 96.69c103.73,12.92 218.61,-11.2 308.38,-73.78 78.35,-54.6 137.7,-138.06 154.56,-251.23 6.3,-42.2 104.18,-832.22 180.01,-1444.19l74.19 -598.15c27.94,-224.58 -44.89,-399.86 -118.95,-578.1 -73.03,-175.75 -147.34,-354.59 -118.73,-584.5l-68.51 -8.55c-30.85,247.9 47.05,435.37 123.6,619.6 70.48,169.62 139.78,336.41 114.08,543l-74.19 598.15c-75.81,611.83 -173.67,1401.65 -179.76,1442.48 -13.77,92.43 -62.09,160.48 -125.85,204.92 -75.43,52.58 -172.42,72.78 -260.28,61.84l-777.05 -96.69c-87.93,-10.94 -177.05,-54.32 -237.32,-123.8 -50.89,-58.66 -81.03,-136.44 -71.74,-229.36 3.9,-38.92 103.1,-832.54 179.75,-1445.74l74.3 -594.98c25.7,-206.5 133.8,-351.26 243.74,-498.47 119.34,-159.81 240.77,-322.42 271.64,-570.42l-68.51 -8.54z"/>
  <path class="fil0" d="M4740.55 5740.73l792.64 98.65c15.46,1.92 22.77,6.21 25.58,11.19l0.09 0.09c3.16,5.59 3,14.41 2.02,22.26l-0.31 2.51 0.09 0.1c-1.52,12.53 -3.62,29.68 -37.67,25.43l-787.6 -98.01 -8.55 68.5 787.59 98.02c102.5,12.76 109.49,-43.97 114.54,-85.5l0.11 0.01 0.3 -2.51c2.42,-19.32 1.71,-42.96 -10.61,-64.82 -12.68,-22.49 -35.93,-40.67 -77.03,-45.78l-792.65 -98.65 -8.54 68.51zm8.54 -68.48c-41.11,-5.12 -68.05,6.77 -85.87,25.42 -17.32,18.12 -23.81,40.93 -26.22,60.27l0.09 0.01 -0.3 2.41c-5.27,41.53 -12.46,98.31 90.06,111.08l8.54 -68.47c-34.09,-4.25 -31.93,-21.36 -30.34,-33.88l0.32 -2.51 0.1 -0.1c0.98,-7.83 2.99,-16.44 7.47,-21.13 3.98,-4.16 12.15,-6.56 27.61,-4.64l8.54 -68.46z"/>
  <path class="fil0" d="M4817.13 5632.32l666.66 82.97c10.97,1.36 15.85,3.87 17.42,6.65 2.01,3.53 1.81,9.78 1.11,15.44l0.09 0.09 -0.25 2.12c-1.01,8.24 -2.39,19.49 -25.59,16.6l-662.43 -82.45 -8.54 68.52 662.43 82.44c91.68,11.43 97.89,-39.5 102.44,-76.77l0.25 -2.03 0.1 0.01c2.15,-17.21 1.49,-38.33 -9.57,-57.89 -11.48,-20.31 -32.3,-36.69 -68.91,-41.24l-666.67 -82.97 -8.54 68.51zm8.53 -68.49c-36.59,-4.56 -60.76,6.19 -76.85,23.03 -15.57,16.31 -21.39,36.62 -23.53,53.82l-0.27 2.11 0.09 0.01c-4.72,37.23 -11.07,88.04 80.5,99.44l8.53 -68.47c-23.22,-2.89 -21.8,-14.13 -20.75,-22.35l0.1 -0.09 0.27 -2.12c0.71,-5.68 2.04,-11.8 4.79,-14.67 2.24,-2.34 7.62,-3.61 18.59,-2.24l8.53 -68.47z"/>
  <path class="fil2" d="M4358.37 9243.3l686.68 85.45c157.46,19.61 346.44,-69.52 376.77,-274.39 7.98,-53.91 183.77,-1476.59 234.05,-1880.75 11.76,-94.51 24.2,-197.51 -14.41,-260.07 -64.88,-109.68 -1297.38,-115.9 -1322.56,86.41 -32.41,260.43 -256.6,1865.59 -258.56,1884.99 -20.81,206.03 140.56,338.75 298.03,358.36z"/>
  <path class="fil1" d="M1897.65 4612.42c-20.42,4.85 72.76,-16.8 -55.13,12.74 -127.9,29.53 -589.53,131.74 -970.7,214.76 31.13,371.46 -122.93,655.18 -199.79,999.42 443.59,-95.42 871.5,-187.77 1135.82,-247.8 292.38,-66.42 384.63,-93.31 572.68,-186.69 26.54,-13.18 54.98,-27.67 85.08,-43.13 -210.2,-247.44 -443,-433.57 -567.96,-749.3z"/>
 </g>
 <g id="Слой_x0020_3">
  <metadata id="CorelCorpID_1Corel-Layer"/>
  <path class="fil0" d="M1965.32 4271.04c81.21,351.98 285.9,574.22 487.07,792.63 203.91,221.37 404.42,439.06 483.8,783.16l210.6 911.21c216.5,936.21 496.7,2147.85 510.83,2216.6 35.92,174.93 -6.34,329.06 -91.93,451.09 -97.98,139.71 -253.25,236.54 -411.99,273.16l-1190.1 274.52c-158.86,36.65 -340.95,17.64 -490.26,-65.07 -130.31,-72.16 -235.76,-192.14 -280.06,-365.02 -16.52,-64.47 -294.96,-1274.48 -510.67,-2211.81l-210.93 -916.14c-79.33,-343.95 5.57,-627.56 91.93,-915.96 85.15,-284.38 171.77,-573.76 90.55,-925.88l104.92 -24.24c87.58,379.67 -3.23,683.01 -92.49,981.11 -82.18,274.45 -162.97,544.33 -89.99,860.74l210.94 916.14c215.65,937.09 494.02,2146.82 510.01,2209.18 36.17,141.2 122.05,239.04 228.09,297.77 125.45,69.5 279.16,85.3 413.73,54.25l1190.1 -274.51c134.66,-31.06 265.98,-112.65 348.35,-230.1 69.56,-99.17 103.87,-224.67 74.56,-367.35 -12.28,-59.75 -293.35,-1275.16 -510.51,-2214.25l-210.6 -911.21c-72.96,-316.26 -263.87,-523.53 -458.04,-734.32 -210.75,-228.81 -425.2,-461.65 -512.83,-841.47l104.92 -24.23z"/>
  <path class="fil0" d="M1882.77 4134.99l-1213.97 280.06c-23.68,5.46 -34.33,13.27 -37.89,21.45l-0.13 0.16c-4.01,9.18 -2.35,22.84 0.43,34.85l0.88 3.85 -0.13 0.17c4.37,19.2 10.38,45.46 62.53,33.42l1206.25 -278.25 24.24 104.91 -1206.24 278.26c-156.97,36.22 -176.91,-50.68 -191.41,-114.3l-0.16 0.03 -0.87 -3.85c-6.85,-29.58 -9.54,-66.37 6.08,-102.26 16.07,-36.93 49.23,-68.86 112.17,-83.36l1213.99 -280.06 24.23 104.92zm-24.22 -104.88c62.95,-14.52 106.66,-0.4 137.3,25.68 29.76,25.35 43.5,59.69 50.32,89.32l-0.13 0.03 0.86 3.69c14.83,63.59 35.08,150.52 -121.94,186.76l-24.21 -104.86c52.21,-12.05 46.11,-38.26 41.64,-57.42l-0.9 -3.86 -0.17 -0.13c-2.77,-12 -7.28,-25.03 -14.98,-31.58 -6.85,-5.82 -19.9,-8.23 -43.58,-2.77l-24.21 -104.86z"/>
  <path class="fil0" d="M1746.59 3979.06l-1021.04 235.55c-16.8,3.85 -23.96,8.54 -25.95,13.1 -2.55,5.8 -1.24,15.46 0.75,24.13l-0.13 0.16 0.74 3.25c2.88,12.63 6.82,29.86 42.35,21.65l1014.55 -234.04 24.23 104.93 -1014.55 234.04c-140.41,32.42 -158.21,-45.61 -171.24,-102.7l-0.71 -3.11 -0.16 0.04c-6.09,-26.36 -8.45,-59.23 5.58,-91.36 14.56,-33.35 44.23,-62.1 100.3,-75.02l1021.05 -235.54 24.23 104.92zm-24.22 -104.89c56.04,-12.95 95.26,-0.13 122.92,23.41 26.78,22.82 39.07,53.4 45.14,79.73l0.75 3.24 -0.13 0.03c13.29,57 31.28,134.82 -108.97,167.18l-24.21 -104.86c35.56,-8.21 31.56,-25.42 28.62,-38l-0.17 -0.13 -0.75 -3.24c-2.01,-8.71 -5.06,-17.98 -9.79,-21.99 -3.85,-3.29 -12.41,-4.39 -29.2,-0.51l-24.21 -104.86z"/>
  <path class="fil2" d="M3036.9 9507.96l-1051.69 242.61c-241.16,55.64 -548.64,-52.37 -628.51,-365.35 -21.03,-82.36 -521.7,-2261.48 -664.47,-2880.47 -33.38,-144.75 -69.19,-302.56 -19.32,-405.81 83.09,-180.57 2065.05,-104.59 2136.53,205.28 92.03,398.86 626.27,2570.23 632.42,2600.01 65.3,316.33 -163.79,548.09 -404.96,603.73z"/>
  <path class="fil1" d="M1897.65 4612.42c-20.42,4.85 72.76,-16.8 -55.13,12.74 -127.9,29.53 -589.53,131.74 -970.7,214.76 31.13,371.46 -122.93,655.18 -199.79,999.42 443.59,-95.42 871.5,-187.77 1135.82,-247.8 292.38,-66.42 384.63,-93.31 572.68,-186.69 26.54,-13.18 54.98,-27.67 85.08,-43.13 -210.2,-247.44 -443,-433.57 -567.96,-749.3z"/>
 </g>
</svg>
